<svg width="4" height="4" viewBox="0 0 47 49" fill="none" xmlns="http://www.w3.org/2000/svg">
<path d="M46.1043 27.142L45.9943 23.407C45.9861 23.0955 45.9212 22.7887 45.8032 22.5043C45.6852 22.22 45.5164 21.9636 45.3067 21.7499C45.097 21.5363 44.8503 21.3695 44.581 21.2592C44.3116 21.1489 44.0248 21.0971 43.7369 21.107L43.2684 21.122C42.3863 17.0296 40.4044 13.3114 37.5725 10.4361L37.5429 10.4061C35.7972 8.62101 33.7652 7.19561 31.5467 6.2L37.5984 6.00005C37.9455 6.96842 38.5979 7.77269 39.4402 8.27056C40.2825 8.76842 41.2604 8.92776 42.2009 8.72038C43.1413 8.51301 43.9837 7.95222 44.5788 7.13738C45.174 6.32253 45.4837 5.30611 45.4529 4.26799C45.4196 3.10039 44.96 1.99472 44.1749 1.19304C43.7867 0.794861 43.3289 0.484536 42.8285 0.280199C42.328 0.0758629 41.795 -0.0184401 41.2605 0.00297751C40.183 0.0366032 39.1619 0.531974 38.4217 1.38005C38.0085 1.85686 37.6973 2.42633 37.5105 3.04802L26.6149 3.40105L26.603 3.00102C26.5949 2.68941 26.53 2.3826 26.412 2.09819C26.2941 1.81378 26.1253 1.55737 25.9156 1.34368C25.7058 1.12998 25.4593 0.963236 25.1898 0.852953C24.9204 0.742671 24.6334 0.690978 24.3455 0.700976L20.8581 0.806078C20.5707 0.814469 20.2878 0.884224 20.0255 1.01152C19.7632 1.13882 19.5268 1.32114 19.33 1.54778C19.1331 1.77441 18.9796 2.04094 18.8784 2.33208C18.7772 2.62321 18.7301 2.93319 18.7401 3.24407L18.7522 3.64397L7.85659 3.99797C7.50953 3.0296 6.85712 2.22533 6.01479 1.72746C5.17246 1.2296 4.19446 1.07026 3.25401 1.27764C2.31355 1.48502 1.47122 2.0458 0.876064 2.86064C0.280904 3.67549 -0.0286547 4.69191 0.00208805 5.73003C0.031901 6.76638 0.398957 7.75802 1.0385 8.53008C1.67804 9.30213 2.54894 9.80495 3.49765 9.94988C4.44636 10.0948 5.41189 9.8725 6.22392 9.32219C7.03595 8.77188 7.64227 7.92899 7.936 6.94206L13.9877 6.74199C11.1669 8.2366 8.71458 10.4353 6.83293 13.1568C4.95129 15.8783 3.69411 19.0447 3.16512 22.3951L2.58296 22.414C2.00163 22.4341 1.45148 22.703 1.05305 23.1615C0.654617 23.6201 0.440508 24.2309 0.457688 24.86L0.567556 28.61C0.57568 28.9216 0.640572 29.2285 0.758526 29.5129C0.876481 29.7973 1.04522 30.0537 1.25496 30.2674C1.4647 30.4811 1.71139 30.6478 1.98083 30.7581C2.25027 30.8684 2.53711 30.9201 2.82503 30.9101L6.29126 30.798C6.87251 30.7776 7.42257 30.5087 7.82095 30.0502C8.21933 29.5917 8.43347 28.9811 8.41653 28.352L8.30655 24.601C8.29855 24.2893 8.23372 23.9825 8.11581 23.698C7.99789 23.4136 7.82925 23.1571 7.61949 22.9434C7.40972 22.7297 7.163 22.5629 6.89351 22.4527C6.62401 22.3425 6.33703 22.2909 6.04908 22.3011H5.94937C6.61791 18.7883 8.21416 15.561 10.5445 13.0109C12.8749 10.4608 15.8391 8.69752 19.0774 7.93498C19.1921 8.20215 19.3537 8.44263 19.5533 8.64299C19.7631 8.85676 20.0099 9.02354 20.2795 9.13371C20.5491 9.24389 20.8362 9.29539 21.1243 9.28508L24.5904 9.17302C25.0146 9.15848 25.4258 9.01085 25.7739 8.74809C26.122 8.48534 26.392 8.11882 26.5512 7.69304C29.8312 8.24384 32.8936 9.81063 35.3686 12.2041C37.8435 14.5977 39.625 17.7156 40.498 21.1811L40.2846 21.188C39.7034 21.2084 39.1533 21.4774 38.7549 21.9358C38.3566 22.3943 38.1423 23.005 38.1592 23.6341L38.2692 27.3841C38.2773 27.6957 38.3422 28.0025 38.4602 28.2869C38.5782 28.5713 38.7469 28.8277 38.9566 29.0414C39.1664 29.2551 39.4129 29.4219 39.6824 29.5322C39.9518 29.6424 40.2388 29.694 40.5267 29.684L43.9928 29.5721C44.2791 29.5632 44.5609 29.4931 44.8221 29.366C45.0833 29.2389 45.3188 29.0574 45.5149 28.8316C45.7111 28.6058 45.8641 28.3404 45.9652 28.0505C46.0664 27.7605 46.1137 27.4518 46.1043 27.142ZM5.67391 27.9001L3.24464 27.9791L3.16692 25.35L5.5963 25.271L5.67391 27.9001ZM41.3269 2.93999C41.5928 2.93182 41.8549 3.00917 42.0802 3.16216C42.3055 3.31514 42.4839 3.53699 42.5927 3.79961C42.7016 4.06223 42.736 4.3538 42.6918 4.63762C42.6475 4.92144 42.5266 5.18477 42.3441 5.39421C42.1617 5.60365 41.926 5.74984 41.6668 5.81438C41.4076 5.87891 41.1366 5.85887 40.8879 5.75676C40.6392 5.65466 40.424 5.47513 40.2696 5.24077C40.1152 5.00641 40.0285 4.72768 40.0203 4.43999C40.0154 4.24851 40.0454 4.05791 40.1089 3.87908C40.1723 3.70024 40.2679 3.53671 40.39 3.398C40.6349 3.11855 40.9712 2.95412 41.3269 2.93999ZM4.10305 7.07805C3.83719 7.08622 3.57506 7.00887 3.34977 6.85588C3.12448 6.7029 2.94617 6.48118 2.83732 6.21855C2.72847 5.95593 2.69393 5.66424 2.73817 5.38042C2.78241 5.0966 2.90338 4.83327 3.08582 4.62383C3.26826 4.41438 3.50399 4.2682 3.76319 4.20366C4.02239 4.13913 4.29351 4.15917 4.54218 4.26128C4.79086 4.36338 5.00592 4.54303 5.16033 4.77739C5.31474 5.01175 5.40147 5.29036 5.40962 5.57805C5.41504 5.76957 5.38558 5.9603 5.32276 6.13945C5.25995 6.3186 5.16504 6.48257 5.04358 6.622C4.92213 6.76142 4.77649 6.87366 4.61494 6.95207C4.45339 7.03049 4.27914 7.07359 4.10215 7.07903L4.10305 7.07805ZM21.5429 6.35906L21.4652 3.73003L23.8945 3.65105L23.9333 4.95806L23.9721 6.26506L21.5429 6.35906ZM40.9536 26.747L40.876 24.118L43.3053 24.0401L43.383 26.669L40.9536 26.747Z" fill="url(#paint0_linear_4_3400)"/>
<g clip-path="url(#clip0_4_3400)">
<path d="M18.0602 42.1133L18.021 40.9239C17.9989 40.2557 18.0766 39.5878 18.251 38.9463L18.7694 37.0387L29.2071 36.6356L29.8499 38.4983C30.0661 39.1248 30.1875 39.7849 30.2096 40.4532L30.2488 41.6426C30.2488 41.6426 18.0602 42.1133 18.0602 42.1133Z" fill="url(#paint1_linear_4_3400)"/>
<path d="M18.5433 33.9347C17.6876 30.4034 15.5937 29.0014 15.5937 29.0014L23.212 13.2989L31.8453 28.3737C31.8453 28.3737 29.8491 29.9337 29.2282 33.522C29.2282 33.5221 18.5433 33.9347 18.5433 33.9347ZM25.08 23.6824C24.2085 22.8043 22.8442 22.857 22.0328 23.8C21.2214 24.7431 21.2701 26.2195 22.1416 27.0976C23.013 27.9757 24.3773 27.923 25.1887 26.9799C26.0001 26.0368 25.9514 24.5604 25.08 23.6824Z" fill="url(#paint2_linear_4_3400)"/>
</g>
<defs>
<linearGradient id="paint0_linear_4_3400" x1="23.0527" y1="0" x2="23.0527" y2="30.9113" gradientUnits="userSpaceOnUse">
<stop stop-color="#64B5C5"/>
<stop offset="1" stop-color="#F8B549"/>
</linearGradient>
<linearGradient id="paint1_linear_4_3400" x1="20.2367" y1="44.3064" x2="28.5912" y2="36.015" gradientUnits="userSpaceOnUse">
<stop stop-color="#64B5C5"/>
<stop offset="1" stop-color="#F8B549"/>
</linearGradient>
<linearGradient id="paint2_linear_4_3400" x1="17.8052" y1="33.191" x2="30.4748" y2="20.6169" gradientUnits="userSpaceOnUse">
<stop stop-color="#64B5C5"/>
<stop offset="1" stop-color="#F8B549"/>
</linearGradient>
<clipPath id="clip0_4_3400">
<rect width="23.894" height="24.0286" fill="white" transform="matrix(0.704424 0.709779 0.652204 -0.758044 7.54053 31.5137)"/>
</clipPath>
</defs>
</svg>
