<svg width="49px" height="57px" viewBox="0 0 49 57" fill="none" xmlns="http://www.w3.org/2000/svg">
<path d="M7 7.125C7 5.23533 7.7375 3.42306 9.05025 2.08686C10.363 0.750667 12.1435 0 14 0H35C36.8565 0 38.637 0.750667 39.9497 2.08686C41.2625 3.42306 42 5.23533 42 7.125V18.1153C40.8674 17.7095 39.6326 17.7095 38.5 18.1153V7.125C38.5 6.18017 38.1312 5.27403 37.4749 4.60593C36.8185 3.93783 35.9283 3.5625 35 3.5625H14C13.0717 3.5625 12.1815 3.93783 11.5251 4.60593C10.8687 5.27403 10.5 6.18017 10.5 7.125V18.1189C9.36739 17.7131 8.13261 17.7131 7 18.1189V7.125ZM7 42.4472V49.875C7 51.7647 7.7375 53.5769 9.05025 54.9131C10.363 56.2493 12.1435 57 14 57H35C36.8565 57 38.637 56.2493 39.9497 54.9131C41.2625 53.5769 42 51.7647 42 49.875V42.4472C40.8674 42.853 39.6326 42.853 38.5 42.4472V49.875C38.5 50.8198 38.1312 51.726 37.4749 52.3941C36.8185 53.0622 35.9283 53.4375 35 53.4375H14C13.0717 53.4375 12.1815 53.0622 11.5251 52.3941C10.8687 51.726 10.5 50.8198 10.5 49.875V42.4436C9.36744 42.8497 8.13257 42.8497 7 42.4436V42.4472ZM16.9855 31.5424L9.9855 38.6674C9.82279 38.8328 9.62967 38.9639 9.41718 39.0533C9.20467 39.1427 8.97695 39.1887 8.74701 39.1885C8.51707 39.1883 8.28942 39.1421 8.07704 39.0523C7.86466 38.9626 7.67173 38.8312 7.50925 38.6656C7.34677 38.5 7.21793 38.3034 7.13009 38.0871C7.04224 37.8708 6.99711 37.639 6.99728 37.405C6.9976 36.9323 7.1824 36.4791 7.511 36.1451L11.5255 32.0625H1.75C1.28587 32.0625 0.840752 31.8748 0.512563 31.5408C0.184375 31.2067 0 30.7537 0 30.2812C0 29.8088 0.184375 29.3558 0.512563 29.0217C0.840752 28.6877 1.28587 28.5 1.75 28.5H11.5255L7.511 24.4174C7.34829 24.2518 7.21922 24.0552 7.13117 23.8388C7.04311 23.6224 6.99779 23.3905 6.99779 23.1562C6.99779 22.922 7.04311 22.6901 7.13117 22.4737C7.21922 22.2574 7.34829 22.0607 7.511 21.8951C7.8396 21.5607 8.28528 21.3727 8.75 21.3727C8.9801 21.3727 9.20796 21.4189 9.42054 21.5085C9.63313 21.5981 9.82629 21.7295 9.989 21.8951L16.989 29.0201C17.3148 29.352 17.4984 29.8014 17.5 30.2706V30.2919C17.4979 30.7564 17.317 31.2015 16.996 31.5317L16.9855 31.5424ZM39.011 21.8951L32.011 29.0201L32.004 29.0308C31.6834 29.3612 31.5025 29.8062 31.5 30.2706V30.2919C31.5029 30.7597 31.6864 31.2076 32.011 31.5388L39.011 38.6638C39.3391 38.9983 39.7844 39.1864 40.2488 39.1867C40.4787 39.1869 40.7064 39.1409 40.9189 39.0515C41.1314 38.9621 41.3245 38.831 41.4873 38.6656C41.65 38.5002 41.7791 38.3038 41.8672 38.0877C41.9554 37.8715 42.0008 37.6398 42.001 37.4057C42.0011 37.1717 41.956 36.9399 41.8682 36.7236C41.7803 36.5073 41.6515 36.3107 41.489 36.1451L37.4745 32.0625H47.25C47.7141 32.0625 48.1592 31.8748 48.4874 31.5408C48.8156 31.2067 49 30.7537 49 30.2812C49 29.8088 48.8156 29.3558 48.4874 29.0217C48.1592 28.6877 47.7141 28.5 47.25 28.5H37.4745L41.489 24.4174C41.8176 24.0829 42.0022 23.6293 42.0022 23.1562C42.0022 22.6832 41.8176 22.2296 41.489 21.8951C41.1604 21.5607 40.7147 21.3727 40.25 21.3727C39.7853 21.3727 39.3396 21.5607 39.011 21.8951Z" fill="url(#paint0_linear_4_3583)"/>
<defs>
<linearGradient id="paint0_linear_4_3583" x1="24.5" y1="0" x2="24.5" y2="57" gradientUnits="userSpaceOnUse">
<stop stop-color="#64B5C5"/>
<stop offset="1" stop-color="#F8B549"/>
</linearGradient>
</defs>
</svg>
