<svg width="4px" height="4px" viewBox="0 0 44 47" fill="none" xmlns="http://www.w3.org/2000/svg">
<path fill-rule="evenodd" clip-rule="evenodd" d="M17.2333 24.8162C17.6124 25.6101 17.3051 26.5754 16.5469 26.9723C15.442 27.5508 14.5187 28.4088 13.8245 29.487C13.6945 29.6982 13.6945 29.9427 13.8245 30.154C14.5187 31.2322 15.442 32.0902 16.5469 32.6686C17.3051 33.0655 17.6124 34.0309 17.2333 34.8247C16.8542 35.6186 15.9323 35.9404 15.1741 35.5434C13.5805 34.7092 12.2547 33.4703 11.2713 31.9383L11.2624 31.9245L11.2624 31.9244C10.4555 30.6387 10.4555 29.0022 11.2624 27.7165L11.2712 27.7026L11.2713 27.7026C12.2547 26.1707 13.5805 24.9317 15.1741 24.0975C15.9323 23.7006 16.8542 24.0224 17.2333 24.8162Z" fill="url(#paint0_linear_4_3388)"/>
<path fill-rule="evenodd" clip-rule="evenodd" d="M27.1964 24.8162C27.5755 24.0224 28.4975 23.7006 29.2557 24.0975C30.8492 24.9317 32.1751 26.1707 33.1585 27.7026L33.1674 27.7165L33.1673 27.7165C33.9743 29.0022 33.9743 30.6387 33.1673 31.9244L33.1586 31.9384L33.1585 31.9383C32.1751 33.4703 30.8492 34.7092 29.2557 35.5434C28.4975 35.9404 27.5755 35.6186 27.1964 34.8247C26.8173 34.0309 27.1247 33.0655 27.8829 32.6686C28.9878 32.0902 29.9111 31.2322 30.6052 30.154C30.7353 29.9427 30.7353 29.6983 30.6052 29.487C29.9111 28.4088 28.9878 27.5508 27.8829 26.9723C27.1247 26.5754 26.8173 25.6101 27.1964 24.8162Z" fill="url(#paint1_linear_4_3388)"/>
<path fill-rule="evenodd" clip-rule="evenodd" d="M3.77514 4.31014C6.50614 1.45067 10.5928 0.357422 15.8605 0.357422H28.1395C33.4072 0.357422 37.4939 1.45067 40.2249 4.31014C42.9559 7.1696 44 11.4485 44 16.9639V29.8206C44 35.336 42.9559 39.6149 40.2249 42.4744C37.4939 45.3338 33.4072 46.4271 28.1395 46.4271H15.8605C10.5928 46.4271 6.50614 45.3338 3.77514 42.4744C1.04413 39.6149 0 35.336 0 29.8206V16.9639C0 11.4485 1.04413 7.1696 3.77514 4.31014ZM5.94579 6.58289C4.07215 8.54467 3.06977 11.7655 3.06977 16.9639V29.8206C3.06977 35.019 4.07215 38.2398 5.94579 40.2016C7.81944 42.1634 10.8956 43.2129 15.8605 43.2129H28.1395C33.1044 43.2129 36.1806 42.1634 38.0542 40.2016C39.9279 38.2398 40.9302 35.019 40.9302 29.8206V16.9639C40.9302 11.7655 39.9279 8.54467 38.0542 6.58289C36.1806 4.62111 33.1044 3.57158 28.1395 3.57158H15.8605C10.8956 3.57158 7.81944 4.62111 5.94579 6.58289Z" fill="url(#paint2_linear_4_3388)"/>
<path fill-rule="evenodd" clip-rule="evenodd" d="M42.8744 14.8204C42.8749 15.7079 42.188 16.4278 41.3403 16.4283L2.00639 16.4497C1.15869 16.4502 0.471144 15.731 0.470703 14.8435C0.470262 13.9559 1.1571 13.236 2.00479 13.2355L41.3387 13.2141C42.1864 13.2136 42.874 13.9328 42.8744 14.8204Z" fill="url(#paint3_linear_4_3388)"/>
<defs>
<linearGradient id="paint0_linear_4_3388" x1="14.0265" y1="23.9275" x2="14.0265" y2="35.7135" gradientUnits="userSpaceOnUse">
<stop stop-color="#64B5C5"/>
<stop offset="1" stop-color="#F8B549"/>
</linearGradient>
<linearGradient id="paint1_linear_4_3388" x1="30.4033" y1="23.9275" x2="30.4033" y2="35.7135" gradientUnits="userSpaceOnUse">
<stop stop-color="#64B5C5"/>
<stop offset="1" stop-color="#F8B549"/>
</linearGradient>
<linearGradient id="paint2_linear_4_3388" x1="22" y1="0.357422" x2="22" y2="46.4271" gradientUnits="userSpaceOnUse">
<stop stop-color="#64B5C5"/>
<stop offset="1" stop-color="#F8B549"/>
</linearGradient>
<linearGradient id="paint3_linear_4_3388" x1="21.6726" y1="13.2141" x2="21.6726" y2="16.4497" gradientUnits="userSpaceOnUse">
<stop stop-color="#64B5C5"/>
<stop offset="1" stop-color="#F8B549"/>
</linearGradient>
</defs>
</svg>
