<svg width="16" height="16" viewBox="0 0 16 16" fill="none" xmlns="http://www.w3.org/2000/svg">
<path fill-rule="evenodd" clip-rule="evenodd" d="M15.5 1.44214C15.5 1.27638 15.4341 1.11741 15.3169 1.0002C15.1997 0.882987 15.0408 0.817139 14.875 0.817139H7.375C7.20924 0.817139 7.05026 0.882987 6.93305 1.0002C6.81584 1.11741 6.75 1.27638 6.75 1.44214C6.75 1.6079 6.81584 1.76687 6.93305 1.88408C7.05026 2.00129 7.20924 2.06714 7.375 2.06714H13.3662L0.682496 14.7496C0.624386 14.8077 0.578291 14.8767 0.546842 14.9527C0.515393 15.0286 0.499207 15.11 0.499207 15.1921C0.499207 15.2743 0.515393 15.3557 0.546842 15.4316C0.578291 15.5075 0.624386 15.5765 0.682496 15.6346C0.740606 15.6927 0.809592 15.7388 0.885517 15.7703C0.961441 15.8017 1.04282 15.8179 1.125 15.8179C1.20718 15.8179 1.28855 15.8017 1.36448 15.7703C1.4404 15.7388 1.50939 15.6927 1.5675 15.6346L14.25 2.95089V8.94214C14.25 9.1079 14.3158 9.26687 14.4331 9.38408C14.5503 9.50129 14.7092 9.56714 14.875 9.56714C15.0408 9.56714 15.1997 9.50129 15.3169 9.38408C15.4341 9.26687 15.5 9.1079 15.5 8.94214V1.44214Z" fill="white"/>
</svg>
